<mxfile host="app.diagrams.net" agent="Mozilla/5.0 (Windows NT 10.0; Win64; x64) AppleWebKit/537.36 (KHTML, like Gecko) Chrome/134.0.0.0 Safari/537.36" version="26.1.1">
  <diagram name="Página-1" id="y2DfKsK-ZXINTkEDDB2c">
    <mxGraphModel dx="880" dy="444" grid="1" gridSize="10" guides="1" tooltips="1" connect="1" arrows="1" fold="1" page="1" pageScale="1" pageWidth="827" pageHeight="1169" math="0" shadow="0">
      <root>
        <mxCell id="0" />
        <mxCell id="1" parent="0" />
        <mxCell id="5FgsrayQz4ZcKhRnJpTL-1" value="" style="whiteSpace=wrap;html=1;aspect=fixed;" vertex="1" parent="1">
          <mxGeometry x="249" y="70" width="350" height="350" as="geometry" />
        </mxCell>
        <mxCell id="5FgsrayQz4ZcKhRnJpTL-21" style="edgeStyle=orthogonalEdgeStyle;rounded=0;orthogonalLoop=1;jettySize=auto;html=1;entryX=0;entryY=0.75;entryDx=0;entryDy=0;" edge="1" parent="1" source="5FgsrayQz4ZcKhRnJpTL-2" target="5FgsrayQz4ZcKhRnJpTL-4">
          <mxGeometry relative="1" as="geometry" />
        </mxCell>
        <mxCell id="5FgsrayQz4ZcKhRnJpTL-22" style="edgeStyle=orthogonalEdgeStyle;rounded=0;orthogonalLoop=1;jettySize=auto;html=1;" edge="1" parent="1" source="5FgsrayQz4ZcKhRnJpTL-2" target="5FgsrayQz4ZcKhRnJpTL-6">
          <mxGeometry relative="1" as="geometry" />
        </mxCell>
        <mxCell id="5FgsrayQz4ZcKhRnJpTL-31" style="edgeStyle=orthogonalEdgeStyle;rounded=0;orthogonalLoop=1;jettySize=auto;html=1;entryX=0;entryY=0.75;entryDx=0;entryDy=0;" edge="1" parent="1" source="5FgsrayQz4ZcKhRnJpTL-2" target="5FgsrayQz4ZcKhRnJpTL-16">
          <mxGeometry relative="1" as="geometry" />
        </mxCell>
        <mxCell id="5FgsrayQz4ZcKhRnJpTL-2" value="Organizador" style="shape=umlActor;verticalLabelPosition=bottom;verticalAlign=top;html=1;outlineConnect=0;" vertex="1" parent="1">
          <mxGeometry x="90" y="210" width="70" height="90" as="geometry" />
        </mxCell>
        <mxCell id="5FgsrayQz4ZcKhRnJpTL-4" value="&lt;font style=&quot;font-size: 18px;&quot;&gt;Organizar playlist&lt;/font&gt;" style="rounded=1;whiteSpace=wrap;html=1;" vertex="1" parent="1">
          <mxGeometry x="280" y="120" width="110" height="50" as="geometry" />
        </mxCell>
        <mxCell id="5FgsrayQz4ZcKhRnJpTL-5" value="&lt;font style=&quot;font-size: 14px;&quot;&gt;Festa Surpresa&lt;/font&gt;" style="text;html=1;align=center;verticalAlign=middle;resizable=0;points=[];autosize=1;strokeColor=none;fillColor=none;" vertex="1" parent="1">
          <mxGeometry x="354" y="70" width="120" height="30" as="geometry" />
        </mxCell>
        <mxCell id="5FgsrayQz4ZcKhRnJpTL-26" style="edgeStyle=orthogonalEdgeStyle;rounded=0;orthogonalLoop=1;jettySize=auto;html=1;entryX=0;entryY=0.75;entryDx=0;entryDy=0;" edge="1" parent="1" source="5FgsrayQz4ZcKhRnJpTL-6" target="5FgsrayQz4ZcKhRnJpTL-8">
          <mxGeometry relative="1" as="geometry" />
        </mxCell>
        <mxCell id="5FgsrayQz4ZcKhRnJpTL-6" value="&lt;font style=&quot;font-size: 18px;&quot;&gt;Encomendar salgadinhos&lt;/font&gt;" style="rounded=1;whiteSpace=wrap;html=1;" vertex="1" parent="1">
          <mxGeometry x="280" y="190" width="110" height="50" as="geometry" />
        </mxCell>
        <mxCell id="5FgsrayQz4ZcKhRnJpTL-7" value="&lt;font style=&quot;font-size: 18px;&quot;&gt;Convidar pessoas&lt;/font&gt;" style="rounded=1;whiteSpace=wrap;html=1;" vertex="1" parent="1">
          <mxGeometry x="440" y="190" width="110" height="50" as="geometry" />
        </mxCell>
        <mxCell id="5FgsrayQz4ZcKhRnJpTL-8" value="&lt;span style=&quot;font-size: 18px;&quot;&gt;Comprar bolo&lt;/span&gt;" style="rounded=1;whiteSpace=wrap;html=1;" vertex="1" parent="1">
          <mxGeometry x="440" y="120" width="110" height="50" as="geometry" />
        </mxCell>
        <mxCell id="5FgsrayQz4ZcKhRnJpTL-24" style="edgeStyle=orthogonalEdgeStyle;rounded=0;orthogonalLoop=1;jettySize=auto;html=1;entryX=0;entryY=0.5;entryDx=0;entryDy=0;" edge="1" parent="1" source="5FgsrayQz4ZcKhRnJpTL-9" target="5FgsrayQz4ZcKhRnJpTL-15">
          <mxGeometry relative="1" as="geometry" />
        </mxCell>
        <mxCell id="5FgsrayQz4ZcKhRnJpTL-25" style="edgeStyle=orthogonalEdgeStyle;rounded=0;orthogonalLoop=1;jettySize=auto;html=1;entryX=0;entryY=0.75;entryDx=0;entryDy=0;" edge="1" parent="1" source="5FgsrayQz4ZcKhRnJpTL-9" target="5FgsrayQz4ZcKhRnJpTL-7">
          <mxGeometry relative="1" as="geometry" />
        </mxCell>
        <mxCell id="5FgsrayQz4ZcKhRnJpTL-9" value="&lt;span style=&quot;font-size: 18px;&quot;&gt;Encontrar lugar&lt;/span&gt;" style="rounded=1;whiteSpace=wrap;html=1;" vertex="1" parent="1">
          <mxGeometry x="280" y="260" width="110" height="50" as="geometry" />
        </mxCell>
        <mxCell id="5FgsrayQz4ZcKhRnJpTL-15" value="&lt;font style=&quot;font-size: 18px;&quot;&gt;Marcar data/hora&lt;/font&gt;" style="rounded=1;whiteSpace=wrap;html=1;" vertex="1" parent="1">
          <mxGeometry x="440" y="260" width="110" height="50" as="geometry" />
        </mxCell>
        <mxCell id="5FgsrayQz4ZcKhRnJpTL-16" value="&lt;span style=&quot;font-size: 18px;&quot;&gt;Comprar decoração&lt;/span&gt;" style="rounded=1;whiteSpace=wrap;html=1;" vertex="1" parent="1">
          <mxGeometry x="280" y="330" width="110" height="50" as="geometry" />
        </mxCell>
        <mxCell id="5FgsrayQz4ZcKhRnJpTL-23" style="edgeStyle=orthogonalEdgeStyle;rounded=0;orthogonalLoop=1;jettySize=auto;html=1;entryX=0;entryY=0.75;entryDx=0;entryDy=0;" edge="1" parent="1" source="5FgsrayQz4ZcKhRnJpTL-2" target="5FgsrayQz4ZcKhRnJpTL-9">
          <mxGeometry relative="1" as="geometry" />
        </mxCell>
        <mxCell id="5FgsrayQz4ZcKhRnJpTL-29" style="edgeStyle=orthogonalEdgeStyle;rounded=0;orthogonalLoop=1;jettySize=auto;html=1;entryX=1;entryY=0.75;entryDx=0;entryDy=0;" edge="1" parent="1" source="5FgsrayQz4ZcKhRnJpTL-27" target="5FgsrayQz4ZcKhRnJpTL-28">
          <mxGeometry relative="1" as="geometry" />
        </mxCell>
        <mxCell id="5FgsrayQz4ZcKhRnJpTL-27" value="Familiar" style="shape=umlActor;verticalLabelPosition=bottom;verticalAlign=top;html=1;outlineConnect=0;" vertex="1" parent="1">
          <mxGeometry x="680" y="190" width="50" height="90" as="geometry" />
        </mxCell>
        <mxCell id="5FgsrayQz4ZcKhRnJpTL-28" value="&lt;span style=&quot;font-size: 18px;&quot;&gt;Levar aniversariante&lt;/span&gt;" style="rounded=1;whiteSpace=wrap;html=1;" vertex="1" parent="1">
          <mxGeometry x="440" y="330" width="110" height="50" as="geometry" />
        </mxCell>
      </root>
    </mxGraphModel>
  </diagram>
</mxfile>
